<svg height="512pt" viewBox="0 0 512 512" width="512pt" xmlns="http://www.w3.org/2000/svg"><path d="M497 0H15C6.715 0 0 6.715 0 15v360c0 8.285 6.715 15 15 15h166v92h-45c-8.285 0-15 6.715-15 15s6.715 15 15 15h240c8.285 0 15-6.715 15-15s-6.715-15-15-15h-45v-92h166c8.285 0 15-6.715 15-15V15c0-8.285-6.715-15-15-15zM30 30h452v210H30zm271 452h-90v-92h90zM30 360v-90h452v90zm0 0"/><path d="M166 90c-8.285 0-15 6.715-15 15v15h-30V75c0-8.285-6.715-15-15-15s-15 6.715-15 15v60c0 8.285 6.715 15 15 15h45v45c0 8.285 6.715 15 15 15s15-6.715 15-15v-90c0-8.285-6.715-15-15-15zm240 0c-8.285 0-15 6.715-15 15v15h-30V75c0-8.285-6.715-15-15-15s-15 6.715-15 15v60c0 8.285 6.715 15 15 15h45v45c0 8.285 6.715 15 15 15s15-6.715 15-15v-90c0-8.285-6.715-15-15-15zM286 60h-60c-8.285 0-15 6.715-15 15v120c0 8.285 6.715 15 15 15h60c8.285 0 15-6.715 15-15V75c0-8.285-6.715-15-15-15zm-15 120h-30V90h30zm15 120h-60c-8.285 0-15 6.715-15 15s6.715 15 15 15h60c8.285 0 15-6.715 15-15s-6.715-15-15-15zm0 0"/></svg>