<svg xmlns="http://www.w3.org/2000/svg" width="24" height="24" viewBox="0 0 2 2" shape-rendering="geometricPrecision" text-rendering="geometricPrecision" image-rendering="optimizeQuality" fill-rule="evenodd" clip-rule="evenodd"><path d="M0 2V1c0-1 0-1 1-1h1v1L1 2H0zm0-1h1v1l1-1s0-1-1-1-1 0-1 1v1-1z" fill="#fff" fill-rule="nonzero"/><path d="M0 2V1c0-1 0-1 1-1s1 1 1 1L1 2H0z" fill="#24d366" fill-rule="nonzero"/><path d="M0 2V1c0-1 0-1 1-1h1v1L1 2H0zm0-1h1v1l1-1s0-1-1-1-1 0-1 1v1-1z" fill="#fff" fill-rule="nonzero"/><path d="M1 1V0L0 1h1z" fill="#fff"/></svg>