<svg xmlns="http://www.w3.org/2000/svg" xmlns:xlink="http://www.w3.org/1999/xlink"><defs>
  <style type="text/css">
   <![CDATA[
    .fil1 {fill:#665CAC}
    .fil0 {fill:white}
   ]]>
  </style>
 
  <style type="text/css">
   <![CDATA[
    .fil3 {fill:white}
    .fil1 {fill:#24D366;fill-rule:nonzero}
    .fil0 {fill:white;fill-rule:nonzero}
    .fil2 {fill:white;fill-rule:nonzero}
   ]]>
  </style>
 
  <style type="text/css">
   <![CDATA[
    .fil0 {fill:#0149C1}
   ]]>
  </style>
 
  <style type="text/css">
   <![CDATA[
    .fil0 {fill:#0149C1}
   ]]>
  </style>
 
  <style type="text/css">
   <![CDATA[
    .fil0 {fill:#0149C1}
   ]]>
  </style>
 
  <style type="text/css">
   <![CDATA[
    .fil0 {fill:#0149C1}
   ]]>
  </style>
 
  <style type="text/css">
   <![CDATA[
    .fil0 {fill:#0149C1}
   ]]>
  </style>
 
  <style type="text/css">
   <![CDATA[
    .fil0 {fill:#0149C1}
   ]]>
  </style>
 
  <style type="text/css">
   <![CDATA[
    .fil1 {fill:#665CAC}
    .fil0 {fill:white}
   ]]>
  </style>
 
  <style type="text/css">
   <![CDATA[
    .fil3 {fill:white}
    .fil1 {fill:#24D366;fill-rule:nonzero}
    .fil0 {fill:white;fill-rule:nonzero}
    .fil2 {fill:white;fill-rule:nonzero}
   ]]>
  </style>
 </defs><symbol id="404" viewBox="0 0 512 512"><path d="m497 0h-482c-8.285156 0-15 6.714844-15 15v360c0 8.285156 6.714844 15 15 15h166v92h-45c-8.285156 0-15 6.714844-15 15s6.714844 15 15 15h240c8.285156 0 15-6.714844 15-15s-6.714844-15-15-15h-45v-92h166c8.285156 0 15-6.714844 15-15 0-14.675781 0-345.308594 0-360 0-8.285156-6.714844-15-15-15zm-467 30h452v210h-452zm271 452h-90v-92h90zm-271-122v-90h452v90zm0 0"/><path d="m166 90c-8.285156 0-15 6.714844-15 15v15h-30v-45c0-8.285156-6.714844-15-15-15s-15 6.714844-15 15v60c0 8.285156 6.714844 15 15 15h45v45c0 8.285156 6.714844 15 15 15s15-6.714844 15-15v-90c0-8.285156-6.714844-15-15-15zm0 0"/><path d="m406 90c-8.285156 0-15 6.714844-15 15v15h-30v-45c0-8.285156-6.714844-15-15-15s-15 6.714844-15 15v60c0 8.285156 6.714844 15 15 15h45v45c0 8.285156 6.714844 15 15 15s15-6.714844 15-15v-90c0-8.285156-6.714844-15-15-15zm0 0"/><path d="m286 60h-60c-8.285156 0-15 6.714844-15 15v120c0 8.285156 6.714844 15 15 15h60c8.285156 0 15-6.714844 15-15v-120c0-8.285156-6.714844-15-15-15zm-15 120h-30v-90h30zm0 0"/><path d="m286 300h-60c-8.285156 0-15 6.714844-15 15s6.714844 15 15 15h60c8.285156 0 15-6.714844 15-15s-6.714844-15-15-15zm0 0"/></symbol><symbol id="Checkmark_icon-icons.com_71846" viewBox="0 0 512 512"><style type="text/css">
	.st0{fill:#231F20;}
</style><g><path class="st0" d="M235.1,386.3c-5.7,0-11.1-2.4-14.9-6.6l-104.1-116c-7.4-8.2-6.7-20.9,1.5-28.2c8.2-7.4,20.9-6.7,28.2,1.5   l86.8,96.8l131.6-199.1c6.1-9.2,18.5-11.7,27.7-5.7c9.2,6.1,11.7,18.5,5.7,27.7L251.8,377.4c-3.4,5.2-9,8.5-15.2,8.9   C236.1,386.3,235.6,386.3,235.1,386.3z"/></g></symbol><symbol id="galka-icon" viewBox="0 0 512 512">
<g>
	<g>
		<g>
			<g>
				<g>
					<g>
						<g>
							<g>
								<path fill="#32BEA6" d="M504.1,256C504.1,119,393,7.9,256,7.9C119,7.9,7.9,119,7.9,256C7.9,393,119,504.1,256,504.1          C393,504.1,504.1,393,504.1,256z"/>
							</g>
						</g>
					</g>
				</g>
			</g>
		</g>
	</g>
	<g>
		<g>
			<path fill="#FFFFFF" d="M392.6,172.9c-5.8-15.1-17.7-12.7-30.6-10.1c-7.7,1.6-42,11.6-96.1,68.8c-22.5,23.7-37.3,42.6-47.1,57     c-6-7.3-12.8-15.2-20-22.3C176.7,244.2,152,229,151,228.4c-10.3-6.3-23.8-3.1-30.2,7.3c-6.3,10.3-3.1,23.8,7.2,30.2     c0.2,0.1,21.4,13.2,39.6,31.5c18.6,18.6,35.5,43.8,35.7,44.1c4.1,6.2,11,9.8,18.3,9.8c1.2,0,2.5-0.1,3.8-0.3     c8.6-1.5,15.4-7.9,17.5-16.3c0.1-0.2,8.8-24.3,54.7-72.7c37-39.1,61.7-51.5,70.3-54.9c0.1,0,0.1,0,0.3,0c0,0,0.3-0.1,0.8-0.4     c1.5-0.6,2.3-0.8,2.3-0.8c-0.4,0.1-0.6,0.1-0.6,0.1l0-0.1c4-1.7,11.4-4.9,11.5-5C393.3,196.1,397,184.1,392.6,172.9z"/>
		</g>
	</g>
</g>
</symbol><symbol id="ico-viber" viewBox="0 0 2 2">
 
 <g id="&#x421;&#x43B;&#x43E;&#x439;_x0020_1">
  <metadata id="CorelCorpID_0Corel-Layer"/>
  <g id="_2019066610608">
   <path class="fil0" d="M1 0c0,0 0,0 0,0 0,0 -1,0 -1,0 0,0 0,0 0,1 0,0 0,0 0,0 0,0 0,0 0,0l0 1c0,0 0,0 0,0 0,0 1,0 1,0 0,0 0,-1 0,-1 0,0 0,0 0,0 0,0 0,0 1,0 0,0 0,-1 -1,-1z"/>
   <path class="fil1" d="M1 1c0,0 0,0 0,0 0,0 0,0 0,0 0,0 0,1 -1,1 0,0 0,0 0,0 0,0 0,0 0,0 0,0 0,-1 0,-1 0,0 0,0 0,0 0,0 0,0 0,0 0,0 0,-1 0,-1 0,0 1,0 1,0 0,0 0,0 0,0 0,0 0,1 0,1z"/>
   <path class="fil0" d="M1 1c0,0 0,0 0,0 0,0 0,0 0,0 0,0 0,0 0,0 0,0 0,0 0,0 0,0 0,0 0,0 0,0 0,0 0,0 0,0 0,0 0,0 0,0 0,0 0,0z"/>
   <path class="fil0" d="M1 1c0,0 0,0 0,0 0,0 0,0 0,0 0,0 0,0 0,0 0,0 0,0 0,0 0,0 0,-1 0,-1 0,0 0,0 0,0 0,0 0,0 0,0 0,0 0,0 0,0 0,0 0,0 0,0 0,0 0,0 0,0 0,1 0,1 0,1 0,0 0,0 0,0z"/>
   <path class="fil0" d="M1 1c0,0 0,0 0,0 0,0 0,0 0,0 0,0 0,0 0,0 0,0 0,-1 0,-1 0,0 0,0 0,0 0,0 0,0 0,0 0,0 0,0 0,0 0,0 0,0 0,0 0,0 0,0 0,0 0,0 0,0 0,0 0,0 0,1 0,1 0,0 0,0 0,0z"/>
   <path class="fil0" d="M1 1c0,0 0,0 0,0l0 0c0,0 0,0 0,0 0,0 0,0 0,0 0,0 0,0 0,0 0,0 0,0 0,0 0,0 0,0 0,0 0,0 0,0 0,0 0,0 0,0 0,0 0,0 0,0 0,0 0,0 0,0 0,0 0,0 0,0 0,0l0 0c0,0 0,0 0,0 0,0 0,0 0,0 0,0 0,0 0,0 0,0 0,0 0,0 0,0 0,0 0,0l0 0c0,0 0,0 0,0 0,0 0,0 0,0 0,0 0,0 0,0 0,0 0,0 0,0 -1,0 -1,0 -1,0 0,0 0,0 0,0l0 0c0,0 0,-1 0,-1 0,0 0,0 0,0 0,0 0,0 0,0 0,0 0,0 0,0 0,0 0,0 0,0 0,0 0,0 0,0 0,0 1,0 1,0 0,0 0,0 0,0 0,0 0,0 0,1 0,0 0,0 0,0l0 0c0,0 0,0 0,0 0,0 0,0 0,0z"/>
  </g>
 </g>
</symbol><symbol id="ico-whatsapp" viewBox="0 0 2 2">
 
 <g id="&#x421;&#x43B;&#x43E;&#x439;_x0020_1">
  <metadata id="CorelCorpID_0Corel-Layer"/>
  <g id="_2019066639536">
   <path class="fil0" d="M0 2l0 -1c0,0 0,0 0,0 0,-1 0,-1 1,-1 0,0 0,0 1,0 0,0 0,1 0,1 0,0 -1,1 -1,1 0,0 0,0 0,0l0 0c0,0 0,0 -1,0l0 0zm0 -1l0 0 1 0c0,1 0,1 0,1l0 0c0,0 1,-1 1,-1 0,0 0,-1 -1,-1 0,0 0,0 0,0 -1,0 -1,0 -1,1 0,0 0,0 0,0l0 0 0 1 0 -1z"/>
   <path class="fil1" d="M0 2l0 -1c0,0 0,0 0,0 0,-1 0,-1 1,-1 0,0 0,0 0,0 1,0 1,1 1,1 0,0 -1,1 -1,1 0,0 0,0 0,0l0 0c0,0 0,0 -1,0l0 0z"/>
   <path class="fil2" d="M0 2l0 -1c0,0 0,0 0,0 0,-1 0,-1 1,-1 0,0 0,0 1,0 0,0 0,1 0,1 0,0 -1,1 -1,1 0,0 0,0 0,0l0 0c0,0 0,0 -1,0l0 0zm0 -1l0 0 1 0c0,1 0,1 0,1l0 0c0,0 1,-1 1,-1 0,0 0,-1 -1,-1 0,0 0,0 0,0 -1,0 -1,0 -1,1 0,0 0,0 0,0l0 0 0 1 0 -1z"/>
   <path class="fil3" d="M1 1c0,-1 0,-1 0,-1 0,0 0,0 0,0 0,0 0,0 0,0 -1,1 -1,1 -1,1 0,0 1,0 1,0 0,0 0,0 0,0 0,0 0,0 0,0 0,0 0,0 0,0 0,0 0,0 0,0 0,0 0,0 0,0 0,0 0,0 0,0 0,0 0,0 0,0 0,0 0,0 0,0 0,0 0,0 0,0 0,0 0,0 0,0 0,0 0,0 0,0 0,0 0,0 0,0 0,0 0,0 0,0 0,0 0,0 0,0 0,0 0,0 0,0 0,0 0,0 0,0z"/>
  </g>
 </g>
</symbol><symbol id="icon-demolition" viewBox="0 0 2 2">
 
 <g id="&#x421;&#x43B;&#x43E;&#x439;_x0020_1">
  <metadata id="CorelCorpID_0Corel-Layer"/>
  <path class="fil0" d="M1 0c1,0 1,0 1,1 0,0 0,1 0,1l-1 -1 0 0c0,0 0,0 0,0l0 -1c0,0 0,0 0,0l-1 1c0,0 0,0 0,0l1 0c0,0 0,0 0,0l0 0 1 1c0,0 -1,0 -1,0 -1,0 -1,0 -1,-1 0,-1 0,-1 1,-1z"/>
 </g>
</symbol><symbol id="icon-pay" viewBox="0 0 5 5">
 
 <g id="&#x421;&#x43B;&#x43E;&#x439;_x0020_1">
  <metadata id="CorelCorpID_0Corel-Layer"/>
  <path class="fil0" d="M2 0c2,0 3,1 3,2 0,2 -1,3 -3,3 -1,0 -2,-1 -2,-3 0,-1 1,-2 2,-2zm0 3l0 0 0 0 0 0 0 -1 0 0 0 -1 1 0c0,0 1,1 1,1 0,0 -1,1 -1,1l-1 0 0 0 1 0 0 0 -1 0 0 1 0 0 0 -1 0 0 0 0zm1 -1c0,0 0,0 0,0 0,0 0,0 0,0l-1 0 0 0 1 0z"/>
 </g>
</symbol><symbol id="icon-trans" viewBox="0 0 8 8">
 
 <g id="&#x421;&#x43B;&#x43E;&#x439;_x0020_1">
  <metadata id="CorelCorpID_0Corel-Layer"/>
  <path class="fil0" d="M4 0c2,0 4,2 4,4 0,2 -2,4 -4,4 -2,0 -4,-2 -4,-4 0,-2 2,-4 4,-4zm0 3l0 0 1 0 0 0c0,0 1,0 1,0 0,0 1,0 1,0 0,0 0,1 -1,1 0,0 0,0 -1,0l0 0 0 1 0 0c0,0 1,0 1,0 0,1 0,1 0,1 -1,0 -1,0 -1,0 0,0 0,0 0,-1l-1 0 0 0 -1 0c0,1 0,1 0,1 0,0 0,0 -1,0 0,0 0,0 0,-1 1,0 1,0 1,0l0 0 0 -1 0 0 0 0c-1,0 -1,0 -1,0 -1,0 -1,-1 -1,-1 0,0 1,0 1,0 0,0 1,0 1,0l0 0 1 0 0 0c0,-1 -1,-1 -1,-1 0,0 1,-1 1,-1 0,0 1,1 1,1 0,0 -1,0 -1,1z"/>
 </g>
</symbol><symbol id="molot" viewBox="0 0 78 78">
 
 <g id="&#x421;&#x43B;&#x43E;&#x439;_x0020_1">
  <metadata id="CorelCorpID_0Corel-Layer"/>
  <path class="fil0" d="M39 0c21,0 39,17 39,39 0,9 -4,18 -9,24l-30 -30 8 -8c1,0 1,-1 0,-2l-7 -7c-1,-1 -2,-1 -2,0l-22 22c-1,0 -1,1 0,2l7 7c1,1 2,1 2,0l8 -8 30 30c-6,5 -15,9 -24,9 -22,0 -39,-18 -39,-39 0,-22 17,-39 39,-39z"/>
 </g>
</symbol><symbol id="rubl" viewBox="0 0 149 149">
 
 <g id="&#x421;&#x43B;&#x43E;&#x439;_x0020_1">
  <metadata id="CorelCorpID_0Corel-Layer"/>
  <path class="fil0" d="M75 0c41,0 74,33 74,75 0,41 -33,74 -74,74 -42,0 -75,-33 -75,-74 0,-42 33,-75 75,-75zm-28 87l8 0 0 -7 -8 0 0 -10 8 0 0 -33 33 0c12,0 21,10 21,21 0,12 -9,22 -21,22l-18 0 0 7 27 0 0 10 -27 0 0 15 -15 0 0 -15 -8 0 0 -10zm36 -40c6,0 11,5 11,11 0,7 -5,12 -11,12l-13 0 0 -23 13 0z"/>
 </g>
</symbol><symbol id="transp" viewBox="0 0 284 284">
 
 <g id="&#x421;&#x43B;&#x43E;&#x439;_x0020_1">
  <metadata id="CorelCorpID_0Corel-Layer"/>
  <path class="fil0" d="M142 0c79,0 142,64 142,142 0,79 -63,142 -142,142 -78,0 -142,-63 -142,-142 0,-78 64,-142 142,-142zm10 91l0 15 21 16 15 -5c2,-6 9,-13 18,-16 14,-4 27,0 31,10 3,10 -6,22 -19,26 -9,3 -19,2 -25,-2l-15 5 -8 25 10 13c7,0 15,5 21,12 8,12 8,26 0,33 -9,6 -23,1 -31,-10 -6,-8 -8,-17 -6,-24l-10 -14 -24 0 -10 14c2,7 0,16 -6,24 -8,11 -22,16 -30,10 -9,-7 -9,-21 0,-33 5,-7 13,-12 21,-12l9 -13 -4 -13 -4 -12 -15 -5c-6,4 -15,5 -25,2 -13,-4 -22,-16 -18,-26 3,-10 16,-14 30,-10 9,3 16,10 19,16l14 5 22 -16 0 -15c-6,-4 -10,-13 -10,-22 0,-15 9,-26 19,-26 11,0 19,11 19,26 0,9 -4,18 -9,22z"/>
 </g>
</symbol><symbol id="viber-ico" viewBox="0 0 147 155">
 
 <g id="&#x421;&#x43B;&#x43E;&#x439;_x0020_1">
  <metadata id="CorelCorpID_0Corel-Layer"/>
  <g id="_2877654851408">
   <path class="fil0" d="M130 15c-3,-3 -19,-15 -54,-15 0,0 -41,-2 -61,16 -11,11 -15,27 -15,47 0,21 -1,58 36,69 0,0 0,0 0,0l0 15c0,0 -1,6 3,8 5,1 8,-3 13,-9 3,-2 7,-7 9,-10 25,2 44,-3 46,-3 6,-2 34,-6 39,-43 4,-39 -3,-64 -16,-75z"/>
   <path class="fil1" d="M135 87c-4,31 -27,33 -32,35 -1,0 -18,5 -39,3 0,0 -16,19 -21,24 -1,1 -2,1 -2,1 -1,0 -1,-1 -1,-3 0,-2 0,-26 0,-26 0,0 0,0 0,0 -31,-8 -29,-40 -29,-57 1,-17 4,-31 13,-40 17,-15 52,-13 52,-13 29,0 43,9 46,12 11,9 17,31 13,64z"/>
   <path class="fil0" d="M93 62c0,2 -1,2 -2,3 -1,0 -2,-1 -2,-2 -1,-4 -1,-6 -3,-8 -2,-2 -4,-2 -7,-3 -1,0 -2,-1 -2,-2 0,-1 1,-2 2,-2 4,1 7,2 10,4 2,3 3,6 4,10z"/>
   <path class="fil0" d="M103 66c0,1 -1,2 -2,2 -1,0 -2,-1 -2,-2 0,-3 -1,-6 -2,-9 -1,-3 -2,-5 -4,-8 -2,-2 -5,-4 -7,-5 -3,-1 -7,-2 -10,-2 -1,0 -2,-1 -2,-2 0,-1 1,-2 2,-2 4,0 8,1 11,3 3,1 6,3 9,6 2,2 4,5 5,8 1,4 2,7 2,11z"/>
   <path class="fil0" d="M113 70c0,1 -1,2 -2,2 -1,0 -2,-1 -2,-2 0,-6 -1,-11 -3,-16 -1,-5 -4,-9 -8,-12 -3,-3 -7,-6 -11,-8 -5,-1 -9,-2 -15,-2 -1,0 -2,-1 -2,-2 0,-1 1,-2 2,-2 6,0 11,1 16,3 5,2 9,4 13,8 4,4 7,8 9,14 2,5 3,10 3,17z"/>
   <path class="fil0" d="M79 89c0,0 3,0 5,-2l2 -3c2,-2 5,-3 8,-2 2,2 6,4 8,5 2,2 6,5 6,5 2,2 3,5 2,8 0,0 0,0 0,0 -2,2 -4,5 -7,7 0,0 0,0 0,0 -2,2 -4,3 -6,3 0,0 0,0 -1,0 0,0 -1,0 -2,0l0 0c-3,-1 -8,-3 -17,-8 -6,-3 -10,-6 -14,-9 -2,-2 -4,-4 -7,-6 0,0 0,0 0,0 0,0 0,0 0,0l0 0c0,0 0,0 0,0 0,-1 0,-1 0,-1 0,0 0,0 0,0 -3,-2 -4,-4 -6,-6 -3,-4 -6,-9 -9,-14 -5,-9 -7,-14 -8,-17l0 0c0,-1 -1,-2 -1,-3 0,0 0,-1 0,-1 1,-2 2,-4 3,-6 0,0 0,0 0,0 3,-2 5,-4 8,-6 0,0 0,0 0,0 3,-1 5,-1 7,1 0,0 4,5 5,7 2,2 4,5 5,7 2,3 1,7 -1,8l-4 3c-2,2 -1,4 -1,4 0,0 5,21 25,26z"/>
  </g>
 </g>
</symbol><symbol id="whatsApp-icon" viewBox="0 0 92 93">
 
 <g id="&#x421;&#x43B;&#x43E;&#x439;_x0020_1">
  <metadata id="CorelCorpID_0Corel-Layer"/>
  <g id="_2879681356912">
   <path class="fil0" d="M0 93l7 -24c-4,-7 -7,-15 -7,-23 0,-25 21,-46 46,-46 13,0 24,5 33,13 9,9 13,21 13,33 0,25 -20,46 -46,46 0,0 0,0 0,0l0 0c-7,0 -15,-2 -22,-6l-24 7zm26 -15l0 0 1 1c6,3 13,5 19,5l0 0c21,0 39,-17 39,-38 0,-10 -4,-20 -12,-27 -7,-7 -16,-11 -27,-11 -21,0 -38,17 -38,38 0,7 2,14 6,20l1 2 -4 14 15 -4z"/>
   <path class="fil1" d="M2 91l6 -23c-4,-7 -6,-14 -6,-22 0,-24 20,-44 44,-44 12,0 23,4 32,13 8,8 13,19 13,31 0,25 -20,44 -45,44 0,0 0,0 0,0l0 0c-7,0 -14,-1 -21,-5l-23 6z"/>
   <path class="fil2" d="M0 93l7 -24c-4,-7 -7,-15 -7,-23 0,-25 21,-46 46,-46 13,0 24,5 33,13 9,9 13,21 13,33 0,25 -20,46 -46,46 0,0 0,0 0,0l0 0c-7,0 -15,-2 -22,-6l-24 7zm26 -15l0 0 1 1c6,3 13,5 19,5l0 0c21,0 39,-17 39,-38 0,-10 -4,-20 -12,-27 -7,-7 -16,-11 -27,-11 -21,0 -38,17 -38,38 0,7 2,14 6,20l1 2 -4 14 15 -4z"/>
   <path class="fil3" d="M35 27c-1,-2 -2,-2 -3,-2 0,0 -1,0 -2,0 -1,0 -2,0 -3,1 -1,1 -4,4 -4,10 0,5 4,11 5,12 0,0 8,12 19,17 10,4 12,3 14,3 2,0 7,-3 8,-6 1,-2 1,-5 1,-5 -1,-1 -1,-1 -3,-1 -1,-1 -6,-4 -7,-4 -2,-1 -2,-1 -3,0 -1,2 -3,4 -4,5 0,1 -1,1 -2,0 -1,0 -5,-2 -9,-5 -4,-4 -6,-7 -7,-8 -1,-2 0,-2 1,-3 0,0 1,-1 1,-2 1,0 1,-1 2,-2 0,0 0,-1 -1,-2 0,0 -2,-6 -3,-8z"/>
  </g>
 </g>
</symbol></svg>