<svg xmlns="http://www.w3.org/2000/svg" width="64" height="64" version="1.0" viewBox="0 0 284 284" shape-rendering="geometricPrecision" text-rendering="geometricPrecision" image-rendering="optimizeQuality" fill-rule="evenodd" clip-rule="evenodd"><path d="M142 0c79 0 142 64 142 142 0 79-63 142-142 142C64 284 0 221 0 142 0 64 64 0 142 0zm10 91v15l21 16 15-5c2-6 9-13 18-16 14-4 27 0 31 10 3 10-6 22-19 26-9 3-19 2-25-2l-15 5-8 25 10 13c7 0 15 5 21 12 8 12 8 26 0 33-9 6-23 1-31-10-6-8-8-17-6-24l-10-14h-24l-10 14c2 7 0 16-6 24-8 11-22 16-30 10-9-7-9-21 0-33 5-7 13-12 21-12l9-13-4-13-4-12-15-5c-6 4-15 5-25 2-13-4-22-16-18-26 3-10 16-14 30-10 9 3 16 10 19 16l14 5 22-16V91c-6-4-10-13-10-22 0-15 9-26 19-26 11 0 19 11 19 26 0 9-4 18-9 22z" fill="#0149c1"/></svg>