<svg xmlns="http://www.w3.org/2000/svg" width="33.333" height="9.3mm" version="1.0" viewBox="0 0 147 155" shape-rendering="geometricPrecision" text-rendering="geometricPrecision" image-rendering="optimizeQuality" fill-rule="evenodd" clip-rule="evenodd"><defs><style>.fil0{fill:#fff}</style></defs><g id="Слой_x0020_1"><g id="_2877654851408"><path class="fil0" d="M130 15c-3-3-19-15-54-15 0 0-41-2-61 16C4 27 0 43 0 63c0 21-1 58 36 69v15s-1 6 3 8c5 1 8-3 13-9 3-2 7-7 9-10 25 2 44-3 46-3 6-2 34-6 39-43 4-39-3-64-16-75z"/><path d="M135 87c-4 31-27 33-32 35-1 0-18 5-39 3 0 0-16 19-21 24-1 1-2 1-2 1-1 0-1-1-1-3v-26c-31-8-29-40-29-57 1-17 4-31 13-40C41 9 76 11 76 11c29 0 43 9 46 12 11 9 17 31 13 64z" fill="#665cac"/><path class="fil0" d="M93 62c0 2-1 2-2 3-1 0-2-1-2-2-1-4-1-6-3-8s-4-2-7-3c-1 0-2-1-2-2s1-2 2-2c4 1 7 2 10 4 2 3 3 6 4 10z"/><path class="fil0" d="M103 66c0 1-1 2-2 2s-2-1-2-2c0-3-1-6-2-9s-2-5-4-8c-2-2-5-4-7-5-3-1-7-2-10-2-1 0-2-1-2-2s1-2 2-2c4 0 8 1 11 3 3 1 6 3 9 6 2 2 4 5 5 8 1 4 2 7 2 11z"/><path class="fil0" d="M113 70c0 1-1 2-2 2s-2-1-2-2c0-6-1-11-3-16-1-5-4-9-8-12-3-3-7-6-11-8-5-1-9-2-15-2-1 0-2-1-2-2s1-2 2-2c6 0 11 1 16 3s9 4 13 8 7 8 9 14c2 5 3 10 3 17zM79 89s3 0 5-2l2-3c2-2 5-3 8-2 2 2 6 4 8 5 2 2 6 5 6 5 2 2 3 5 2 8-2 2-4 5-7 7-2 2-4 3-6 3h-3c-3-1-8-3-17-8-6-3-10-6-14-9-2-2-4-4-7-6v-1c-3-2-4-4-6-6-3-4-6-9-9-14-5-9-7-14-8-17 0-1-1-2-1-3v-1l3-6c3-2 5-4 8-6 3-1 5-1 7 1 0 0 4 5 5 7 2 2 4 5 5 7 2 3 1 7-1 8l-4 3c-2 2-1 4-1 4s5 21 25 26z"/></g></g></svg>