<svg xmlns="http://www.w3.org/2000/svg" width="32.001" height="32.143" version="1.0" viewBox="0 0 92 93" shape-rendering="geometricPrecision" text-rendering="geometricPrecision" image-rendering="optimizeQuality" fill-rule="evenodd" clip-rule="evenodd"><path d="M0 93l7-24c-4-7-7-15-7-23C0 21 21 0 46 0c13 0 24 5 33 13 9 9 13 21 13 33 0 25-20 46-46 46-7 0-15-2-22-6L0 93zm26-15l1 1c6 3 13 5 19 5 21 0 39-17 39-38 0-10-4-20-12-27-7-7-16-11-27-11C25 8 8 25 8 46c0 7 2 14 6 20l1 2-4 14 15-4z" fill="#fff" fill-rule="nonzero"/><path d="M2 91l6-23c-4-7-6-14-6-22C2 22 22 2 46 2c12 0 23 4 32 13 8 8 13 19 13 31 0 25-20 44-45 44-7 0-14-1-21-5L2 91z" fill="#24d366" fill-rule="nonzero"/><path d="M0 93l7-24c-4-7-7-15-7-23C0 21 21 0 46 0c13 0 24 5 33 13 9 9 13 21 13 33 0 25-20 46-46 46-7 0-15-2-22-6L0 93zm26-15l1 1c6 3 13 5 19 5 21 0 39-17 39-38 0-10-4-20-12-27-7-7-16-11-27-11C25 8 8 25 8 46c0 7 2 14 6 20l1 2-4 14 15-4z" fill="#fff" fill-rule="nonzero"/><path d="M35 27c-1-2-2-2-3-2h-2c-1 0-2 0-3 1s-4 4-4 10c0 5 4 11 5 12 0 0 8 12 19 17 10 4 12 3 14 3s7-3 8-6c1-2 1-5 1-5-1-1-1-1-3-1-1-1-6-4-7-4-2-1-2-1-3 0-1 2-3 4-4 5 0 1-1 1-2 0-1 0-5-2-9-5-4-4-6-7-7-8-1-2 0-2 1-3 0 0 1-1 1-2 1 0 1-1 2-2 0 0 0-1-1-2 0 0-2-6-3-8z" fill="#fff"/></svg>